<?xml version="1.0" encoding="UTF-8" standalone="no"?>
<!-- Created with Inkscape (http://www.inkscape.org/) -->

<svg
   version="1.1"
   id="svg1"
   width="512"
   height="512"
   viewBox="0 0 512 512"
   sodipodi:docname="bookmark.png"
   xmlns:inkscape="http://www.inkscape.org/namespaces/inkscape"
   xmlns:sodipodi="http://sodipodi.sourceforge.net/DTD/sodipodi-0.dtd"
   xmlns="http://www.w3.org/2000/svg"
   xmlns:svg="http://www.w3.org/2000/svg">
  <defs
     id="defs1">
    <style>
      :root {
        color-scheme: light dark;
        --icon-bg: #dce0e8;
        --icon-fg: #1e66f5;
        --icon-highlight: #eff1f5;
      }

      @media (prefers-color-scheme: dark) {
        :root {
          --icon-bg: #181825;
          --icon-fg: #89b4fa;
          --icon-highlight: #cdd6f4;
        }
      }

      #icon-bg {
        fill: var(--icon-bg);
      }

      #path1 {
        fill: var(--icon-fg);
      }

      #icon-highlight {
        fill: var(--icon-highlight);
        opacity: 0.2;
      }

      @media (prefers-reduced-motion: no-preference) {
        #path1,
        #icon-highlight {
          animation: catppuccin-daily-latte 1209600s steps(14, end) infinite;
        }
      }

      @media (prefers-color-scheme: dark) and (prefers-reduced-motion: no-preference) {
        #path1,
        #icon-highlight {
          animation-name: catppuccin-daily-mocha;
        }
      }

      @keyframes catppuccin-daily-latte {
        0% { fill: #dc8a78; }
        7.142% { fill: #dd7878; }
        14.284% { fill: #ea76cb; }
        21.426% { fill: #8839ef; }
        28.568% { fill: #d20f39; }
        35.71% { fill: #e64553; }
        42.852% { fill: #fe640b; }
        49.994% { fill: #df8e1d; }
        57.136% { fill: #40a02b; }
        64.278% { fill: #179299; }
        71.42% { fill: #04a5e5; }
        78.562% { fill: #209fb5; }
        85.704% { fill: #1e66f5; }
        92.846% { fill: #7287fd; }
        100% { fill: #dc8a78; }
      }

      @keyframes catppuccin-daily-mocha {
        0% { fill: #f5e0dc; }
        7.142% { fill: #f2cdcd; }
        14.284% { fill: #f5c2e7; }
        21.426% { fill: #cba6f7; }
        28.568% { fill: #f38ba8; }
        35.71% { fill: #eba0ac; }
        42.852% { fill: #fab387; }
        49.994% { fill: #f9e2af; }
        57.136% { fill: #a6e3a1; }
        64.278% { fill: #94e2d5; }
        71.42% { fill: #89dceb; }
        78.562% { fill: #74c7ec; }
        85.704% { fill: #89b4fa; }
        92.846% { fill: #b4befe; }
        100% { fill: #f5e0dc; }
      }
    </style>
  </defs>
  <sodipodi:namedview
     id="namedview1"
     pagecolor="#ffffff"
     bordercolor="#000000"
     borderopacity="0.25"
     inkscape:showpageshadow="2"
     inkscape:pageopacity="0.0"
     inkscape:pagecheckerboard="0"
     inkscape:deskcolor="#d1d1d1">
    <inkscape:page
       x="0"
       y="0"
       width="512"
       height="512"
       id="page2"
       margin="0"
       bleed="0" />
  </sodipodi:namedview>
  <g
     inkscape:groupmode="layer"
     inkscape:label="Image"
     id="g1">
    <rect
       id="icon-bg"
       x="0"
       y="0"
       width="512"
       height="512"
       rx="92"
       ry="92" />
    <path
       style="stroke-width:1.22725"
       d="M 122.48986,483.4938 C 113.6823,482.02073 99.885599,476.84974 90.944194,471.67055 86.770843,469.25318 78.639598,462.52703 72.874768,456.72353 64.253379,448.04435 61.373418,444.10262 56.646846,434.5128 45.787144,412.47943 46.545121,424.86087 46.541697,269.44713 46.539242,156.39194 46.84424,130.46985 48.260258,123.4039 57.361414,77.988862 89.320144,43.271992 133.71038,30.579179 c 9.44568,-2.70088 11.76867,-2.811443 67.69065,-3.221726 54.80197,-0.402061 57.9721,-0.30609 59.07982,1.788759 0.76594,1.448504 0.58035,6.87979 -0.53696,15.71343 -2.50342,19.792687 -3.54669,77.126748 -1.82,100.021208 1.39505,18.49729 5.54604,50.7305 7.03162,54.60184 1.02948,2.68279 5.00841,4.5824 7.76545,3.70735 1.29465,-0.4109 12.15301,-15.86331 24.62586,-35.04473 12.27059,-18.87036 22.94327,-34.30872 23.71709,-34.30747 0.77381,0.001 11.27596,15.20461 23.33811,33.78522 12.06217,18.58061 22.99024,34.34971 24.28464,35.04244 3.34638,1.79092 6.69018,0.35993 8.22393,-3.51947 1.4174,-3.58512 3.9679,-20.53485 6.50351,-43.2199 2.37237,-21.22456 2.01919,-83.131646 -0.60815,-106.603186 -1.64372,-14.68407 -1.7862,-19.245319 -0.6442,-20.621354 1.21141,-1.459659 6.07155,-1.702213 27.95503,-1.395166 25.15738,0.352982 26.79233,0.521104 32.53034,3.345187 8.06563,3.969664 14.9762,11.10417 18.93547,19.54909 l 3.24971,6.931481 0.35111,200.656038 c 0.24934,142.49882 -0.039,202.2567 -0.99479,206.17868 -1.98638,8.15072 -6.69796,14.19081 -13.84945,17.75455 l -6.23849,3.10877 -157.76799,-0.14347 C 199.7603,484.60785 125.94101,484.07102 122.48986,483.4938 Z M 426.3738,393.38088 v -52.1772 l -151.25906,0.32572 -151.25907,0.32572 -8.12331,4.07797 c -15.854566,7.9591 -26.901129,23.01314 -29.578212,40.30862 -3.2002,20.67502 8.630455,43.54594 27.577502,53.31262 11.58576,5.97212 7.8182,5.83694 165.06485,5.92299 l 147.5773,0.0808 z"
       id="path1" />
    <path
       id="icon-highlight"
       style="stroke-width:1.22725"
       d="M 122.48986,483.4938 C 113.6823,482.02073 99.885599,476.84974 90.944194,471.67055 86.770843,469.25318 78.639598,462.52703 72.874768,456.72353 64.253379,448.04435 61.373418,444.10262 56.646846,434.5128 45.787144,412.47943 46.545121,424.86087 46.541697,269.44713 46.539242,156.39194 46.84424,130.46985 48.260258,123.4039 57.361414,77.988862 89.320144,43.271992 133.71038,30.579179 c 9.44568,-2.70088 11.76867,-2.811443 67.69065,-3.221726 54.80197,-0.402061 57.9721,-0.30609 59.07982,1.788759 0.76594,1.448504 0.58035,6.87979 -0.53696,15.71343 -2.50342,19.792687 -3.54669,77.126748 -1.82,100.021208 1.39505,18.49729 5.54604,50.7305 7.03162,54.60184 1.02948,2.68279 5.00841,4.5824 7.76545,3.70735 1.29465,-0.4109 12.15301,-15.86331 24.62586,-35.04473 12.27059,-18.87036 22.94327,-34.30872 23.71709,-34.30747 0.77381,0.001 11.27596,15.20461 23.33811,33.78522 12.06217,18.58061 22.99024,34.34971 24.28464,35.04244 3.34638,1.79092 6.69018,0.35993 8.22393,-3.51947 1.4174,-3.58512 3.9679,-20.53485 6.50351,-43.2199 2.37237,-21.22456 2.01919,-83.131646 -0.60815,-106.603186 -1.64372,-14.68407 -1.7862,-19.245319 -0.6442,-20.621354 1.21141,-1.459659 6.07155,-1.702213 27.95503,-1.395166 25.15738,0.352982 26.79233,0.521104 32.53034,3.345187 8.06563,3.969664 14.9762,11.10417 18.93547,19.54909 l 3.24971,6.931481 0.35111,200.656038 c 0.24934,142.49882 -0.039,202.2567 -0.99479,206.17868 -1.98638,8.15072 -6.69796,14.19081 -13.84945,17.75455 l -6.23849,3.10877 -157.76799,-0.14347 C 199.7603,484.60785 125.94101,484.07102 122.48986,483.4938 Z M 426.3738,393.38088 v -52.1772 l -151.25906,0.32572 -151.25907,0.32572 -8.12331,4.07797 c -15.854566,7.9591 -26.901129,23.01314 -29.578212,40.30862 -3.2002,20.67502 8.630455,43.54594 27.577502,53.31262 11.58576,5.97212 7.8182,5.83694 165.06485,5.92299 l 147.5773,0.0808 z" />
  </g>
</svg>
